# xmcd
#
# Track frame offsets: 
#        150
#        19682
#        38800
#        59842
#        77417
#        91483
#        108837
#        123164
#        140619
#        161188
#        178280
#        192469
#        207931
#        227278
#
# Disc length: 3288 seconds
#
# Revision: 0
# Processed by: cddbd v1.5.2PL0 Copyright (c) Steve Scherf et al.
# Submitted via: ExactAudioCopyFreeDBPlugin 1.0
#
DISCID=bd0cd60e
DTITLE=Tracy Stark - The Collection
DYEAR=2006
DGENRE=Blues
TTITLE0=Georgia On My Mind
TTITLE1=Cry Me A River
TTITLE2=When I Fall In Love
TTITLE3=What A Wonderful World
TTITLE4=Crazy
TTITLE5=My One And Only
TTITLE6=Unforgettable
TTITLE7=Superstar
TTITLE8=My Heart Will Go On
TTITLE9=Over The Rainbow
TTITLE10=Don't Know Why
TTITLE11=Call Off The Search
TTITLE12=The Nearness Of You
TTITLE13=Angel
EXTD=
EXTT0=
EXTT1=
EXTT2=
EXTT3=
EXTT4=
EXTT5=
EXTT6=
EXTT7=
EXTT8=
EXTT9=
EXTT10=
EXTT11=
EXTT12=
EXTT13=
PLAYORDER=
